<svg viewBox="0 0 24 25" xmlns="http://www.w3.org/2000/svg">
<path d="M23.3846 19.4712L4.57577 0.662409C3.75546 -0.157896 2.42554 -0.157896 1.60652 0.662409L0.615229 1.65216C-0.205076 2.47272 -0.205076 3.80264 0.615229 4.62167L19.4241 23.4305C20.2446 24.2508 21.5746 24.2508 22.3936 23.4305L23.3833 22.4408C24.2052 21.6217 24.2052 20.2915 23.3846 19.4712Z" fill="currentColor"/>
<path d="M19.4241 0.663072L0.615229 19.4719C-0.205076 20.2922 -0.205076 21.6224 0.615229 22.4414L1.60498 23.4312C2.42554 24.2515 3.75546 24.2515 4.57448 23.4312L23.3846 4.62361C24.2052 3.8033 24.2052 2.47338 23.3846 1.65436L22.3949 0.66461C21.5745 -0.157234 20.2446 -0.157234 19.4241 0.663072Z" fill="currentColor"/>
</svg>
